inDegrees=no
num_controls=7
num_derivatives=13
num_iterations=49
num_multipliers=7
num_parameters=0
num_slacks=7
num_states=26
objective=0.426324
objective_accelerations=0.058849
objective_balance=0.001182
objective_effort=0.015424
objective_height=0.344927
objective_ligament=0.005943
solver_duration=705.386497
status=Solve_Succeeded
success=true
DataType=double
version=3
OpenSimVersion=4.5
endheader
time	/jointset/ground_pelvis/pelvis_tilt/value	/jointset/ground_pelvis/pelvis_tx/value	/jointset/ground_pelvis/pelvis_ty/value	/jointset/hip_l/hip_flexion_l/value	/jointset/hip_l/hip_adduction_l/value	/jointset/hip_l/hip_rotation_l/value	/jointset/back/lumbar_extension/value	/jointset/patellofemoral_l/patellar_flexion_l/value	/jointset/knee_l/knee_flexion_l/value	/jointset/knee_l/knee_adduction_l/value	/jointset/knee_l/knee_rotation_l/value	/jointset/ankle_l/ankle_angle_l/value	/jointset/subtalar_l/subtalar_angle_l/value	/jointset/ground_pelvis/pelvis_tilt/speed	/jointset/ground_pelvis/pelvis_tx/speed	/jointset/ground_pelvis/pelvis_ty/speed	/jointset/hip_l/hip_flexion_l/speed	/jointset/hip_l/hip_adduction_l/speed	/jointset/hip_l/hip_rotation_l/speed	/jointset/back/lumbar_extension/speed	/jointset/patellofemoral_l/patellar_flexion_l/speed	/jointset/knee_l/knee_flexion_l/speed	/jointset/knee_l/knee_adduction_l/speed	/jointset/knee_l/knee_rotation_l/speed	/jointset/ankle_l/ankle_angle_l/speed	/jointset/subtalar_l/subtalar_angle_l/speed	/forceset/tau_hip_flexion_l	/forceset/tau_hip_adduction_l	/forceset/tau_hip_rotation_l	/forceset/tau_knee_flexion_l	/forceset/tau_ankle_angle_l	/forceset/tau_subtalar_angle_l	/forceset/tau_lumbar_extension	lambda_cid13_p0	lambda_cid13_p1	lambda_cid13_p2	lambda_cid13_p3	lambda_cid13_p4	lambda_cid13_p5	lambda_cid14_p0	/jointset/ground_pelvis/pelvis_tilt/accel	/jointset/ground_pelvis/pelvis_tx/accel	/jointset/ground_pelvis/pelvis_ty/accel	/jointset/hip_l/hip_flexion_l/accel	/jointset/hip_l/hip_adduction_l/accel	/jointset/hip_l/hip_rotation_l/accel	/jointset/back/lumbar_extension/accel	/jointset/patellofemoral_l/patellar_flexion_l/accel	/jointset/knee_l/knee_flexion_l/accel	/jointset/knee_l/knee_adduction_l/accel	/jointset/knee_l/knee_rotation_l/accel	/jointset/ankle_l/ankle_angle_l/accel	/jointset/subtalar_l/subtalar_angle_l/accel	gamma_cid13_p0	gamma_cid13_p1	gamma_cid13_p2	gamma_cid13_p3	gamma_cid13_p4	gamma_cid13_p5	gamma_cid14_p0
1.5	-0.3490651164121124	0.05453701376616826	0.7883319748422705	1.018191882560325	-0.3561343161656153	-0.05188566212760726	-0.3290277942468794	0.8326490444830287	0.8326490444830026	-0.02589943334405755	-0.17126382759458	0.2841498958734479	0.1614997152770071	0.4964061118888806	0.2703799897821291	0.508509478423594	-2.346004856433419	0.0005070426637686898	-0.5831555564094978	0.6148070962636714	-2.234711114384395	-2.234711114384511	-0.3248141464964548	0.04201356299351108	-0.5593159404601097	-0.2256841280973834	-0.134802352206305	0.0815115699341174	-0.002373816592544902	-0.1261103424126931	-0.03446738862053364	-0.01497600088408565	0.12746817165028	-36.73745120146002	13.87991790752693	-3.571414728395372	-1.162794643226821	-428.9367308270395	-22.56196539914074	-9.555664643648381	0.6034312291171245	0.552383661232873	-0.7770127166546605	-1.282792338578303	0.2999910179354714	-0.5249981719308257	1.598139220469257	-1.247661123733768	-1.247661123733767	-0.1141862534718773	0.340071560855483	-0.6380228435309536	0.38507320928289	6.288723001121711e-07	-6.535703553058216e-07	-7.827387933215211e-06	-4.4928951956731e-07	1.54622658792837e-06	1.72860361268459e-06	8.489371594245086e-07
1.51	-0.3440709438312524	0.05726790439455107	0.793377202587492	0.994669453993961	-0.3561167233122642	-0.05773556829923521	-0.3228017172112065	0.8102415800033367	0.8102415800033348	-0.02916296679646152	-0.1708246332531536	0.2785244724069648	0.1592584906955248	0.502339586130177	0.275736866541713	0.5004219386686607	-2.358129806191988	0.003025333947501262	-0.5867916691284083	0.6303051210903273	-2.246470671790913	-2.246470671791148	-0.3278239824031163	0.04584564816961118	-0.5656952770331873	-0.2225178177181938	-0.1306624627567464	0.08050092079577657	-0.001439240670249625	-0.1221238289088225	-0.03572110387218631	-0.01597910522826735	0.1239008046494842	-37.00509500617322	14.08513055042407	-3.287392603448478	-0.4791841365148741	-425.5642494727991	-22.31513157293562	-10.48311931266402	0.5750329200839502	0.5180602278159795	-0.8414226641968092	-1.124604190903681	0.2310763171641134	-0.2769347444588195	1.510155646683027	-1.093596989248852	-1.093596989266524	-0.3844564023055946	0.4063967759017172	-0.6268822655140978	0.2898871355064332	6.243379204925061e-07	-7.119669106353932e-07	-7.735241645134186e-06	-4.466318542610342e-07	1.587437593746251e-06	1.912735971283242e-06	8.179735000036924e-07
1.52	-0.3390200910282927	0.06005050789942843	0.7983381953233072	0.9710363243507277	-0.3560732819193596	-0.06362063898257454	-0.3164237556206831	0.7877258211615519	0.7877258211615741	-0.03245461343655404	-0.170346794103973	0.2728374569344881	0.1570504246544884	0.5077421563094092	0.2807225650810373	0.4916624765423866	-2.368145071806857	0.00567675057411674	-0.5901884587508222	0.6451840072337655	-2.256369986802953	-2.256369986803305	-0.3304367840314698	0.04974252454229253	-0.5716343416589827	-0.219052420008226	-0.1265225733071832	0.07949027165741138	-0.000504664748046581	-0.118137315404954	-0.03697481912384485	-0.01698220957248271	0.1203334376486974	-37.26838838803541	14.28822379935064	-3.001476905385518	0.1486624490710625	-422.1239546082177	-22.18318623816506	-11.40800914885434	0.497250416704309	0.4781480171809132	-0.91139719092283	-0.8608555098383547	0.3266160865120703	-0.4771335526314306	1.474311483825693	-0.875612644838194	-0.8756126448381538	-0.03477939781029905	0.3530298001717913	-0.5499684540745371	0.4448906754385216	6.133358769362572e-07	-2.601386955542956e-07	-7.552328419714951e-06	-3.746658274227108e-07	1.615089499988347e-06	2.277895111185311e-06	8.243741055654286e-07
1.53	-0.3339177710302119	0.06288131579928907	0.8032083724567365	0.9473129575320335	-0.3560032799262272	-0.06953880080649495	-0.3099005082053828	0.765120241842676	0.7651202418426583	-0.03577119371799738	-0.1698303728762435	0.2670934867922036	0.1548778188925899	0.5126193891163405	0.285395307860265	0.4822687517444966	-2.37619327216421	0.008301043126086488	-0.5932121316274661	0.6593473551528307	-2.264423153031579	-2.264423153031594	-0.3329904576548571	0.05367281724214424	-0.5770539176582631	-0.2154659356971856	-0.1217520925780292	0.07753841519583679	0.0005942917463516215	-0.1157986158822585	-0.03611342331204496	-0.01809757853635902	0.1163944506910563	-36.8758846262695	14.50868846027124	-2.813645108123867	0.19105148638053	-419.0109720977499	-22.27106391241029	-12.32882029173746	0.4676435790703243	0.4552511318509121	-0.9686627988821193	-0.7264655903168263	0.2279245350519389	-0.1792398672295058	1.369628344926682	-0.7219390512158993	-0.7219390511653162	-0.3824196494263634	0.431410646394796	-0.5220282155886188	0.3165949111476384	5.954619404473879e-07	7.338033380881323e-07	-7.272975323373867e-06	-2.290596664565874e-07	1.628334862931171e-06	2.835395206222259e-06	8.704742426711264e-07
1.54	-0.3287697419307867	0.06575753387165319	0.8079815518072547	0.9235191760514372	-0.3559075172684705	-0.07548005050159998	-0.3032391709310958	0.7424437767736125	0.7424437767736335	-0.03911666239650314	-0.1692709723932728	0.2612985056813818	0.152741291494244	0.5168839765785999	0.2898045995817319	0.4722629199602362	-2.382228004186885	0.01082888349856635	-0.5948060329860589	0.6728019790310971	-2.270547136833848	-2.270547136833525	-0.3362144634711858	0.05833837560211989	-0.5818365353668969	-0.2118367472977123	-0.1169816118488889	0.07558655873421206	0.001693248241239071	-0.113459916359572	-0.03525202750025987	-0.01921294750031192	0.112455463733412	-36.47755528245172	14.72718755131323	-2.624413545000731	0.1842751871848906	-415.8017180518358	-22.46898747419128	-13.24482970890639	0.3747213477699374	0.4254578056287088	-1.03381858819692	-0.4581618429028812	0.3073256506140749	-0.1911792490211551	1.332566675665882	-0.4897761595667746	-0.4897761595667754	-0.1688458363985868	0.5000829321966426	-0.4225767959452835	0.4534314931250941	4.320680853787298e-07	2.558519970199657e-06	-5.310419847097025e-06	9.412371653905892e-08	1.292436023731251e-06	3.066764104942117e-06	8.043184278562463e-07
